<svg width="278" height="32" viewBox="0 0 278 32" fill="none" xmlns="http://www.w3.org/2000/svg">
<path d="M0 20.8471L6.40795 14.4289L12.8159 20.8471L23.4958 10.15V18.7077H27.7678V5.87123H14.9519V10.15L21.3598 16.5683L14.9519 22.9865L8.54393 16.5683L2.13598 22.9865V27.2653L0 20.8471Z" fill="#2563EB"/>
<path d="M72.9541 9.37512C72.8327 8.14941 72.3119 7.19721 71.3915 6.51852C70.4712 5.83982 69.2222 5.50047 67.6445 5.50047C66.5724 5.50047 65.6673 5.65242 64.929 5.95632C64.1907 6.25008 63.6243 6.66034 63.2299 7.18708C62.8456 7.71383 62.6534 8.31149 62.6534 8.98006C62.6332 9.5372 62.7495 10.0234 63.0024 10.4387C63.2653 10.8541 63.6243 11.2137 64.0795 11.5176C64.5346 11.8113 65.0605 12.0696 65.6572 12.2925C66.2539 12.5052 66.891 12.6876 67.5686 12.8395L70.36 13.5081C71.7152 13.812 72.9591 14.2172 74.0919 14.7236C75.2246 15.2301 76.2056 15.8531 77.0349 16.5926C77.8642 17.3321 78.5064 18.2032 78.9615 19.2061C79.4268 20.2089 79.6644 21.3587 79.6745 22.6553C79.6644 24.5597 79.179 26.2108 78.2182 27.6087C77.2675 28.9965 75.8921 30.0753 74.0919 30.8452C72.3018 31.6049 70.1425 31.9848 67.6141 31.9848C65.106 31.9848 62.9215 31.5999 61.0606 30.83C59.2098 30.0601 57.7635 28.9205 56.7218 27.4112C55.6903 25.8917 55.1492 24.0127 55.0986 21.774H61.455C61.5258 22.8173 61.8241 23.6885 62.35 24.3875C62.8861 25.0763 63.5991 25.598 64.4891 25.9525C65.3892 26.2969 66.4056 26.4691 67.5383 26.4691C68.6508 26.4691 69.6166 26.3071 70.4358 25.9829C71.2651 25.6588 71.9073 25.208 72.3625 24.6306C72.8176 24.0532 73.0451 23.3897 73.0451 22.6401C73.0451 21.9411 72.8378 21.3536 72.4231 20.8775C72.0186 20.4014 71.4219 19.9962 70.633 19.6619C69.8543 19.3276 68.8986 19.0237 67.7658 18.7502L64.3829 17.8993C61.7634 17.2612 59.6952 16.2634 58.1782 14.906C56.6612 13.5486 55.9077 11.7202 55.9178 9.4207C55.9077 7.53656 56.4083 5.89047 57.4197 4.48243C58.4412 3.07439 59.8419 1.97531 61.6219 1.18519C63.4018 0.395062 65.4246 0 67.69 0C69.9959 0 72.0085 0.395062 73.7278 1.18519C75.4572 1.97531 76.8023 3.07439 77.7631 4.48243C78.7239 5.89047 79.2194 7.52137 79.2498 9.37512H72.9541Z" fill="#2563EB"/>
<path d="M96.3657 8.20513V13.0674H82.3332V8.20513H96.3657ZM85.5189 2.61349H91.9815V24.3723C91.9815 24.9699 92.0725 25.4359 92.2545 25.7702C92.4366 26.0943 92.6894 26.3223 93.0131 26.4539C93.3468 26.5856 93.7311 26.6515 94.166 26.6515C94.4694 26.6515 94.7728 26.6261 95.0762 26.5755C95.3796 26.5147 95.6122 26.4691 95.7741 26.4387L96.7905 31.2555C96.4668 31.3568 96.0117 31.4733 95.4251 31.6049C94.8386 31.7468 94.1255 31.8329 93.2861 31.8632C91.7286 31.924 90.3633 31.7164 89.1901 31.2403C88.0271 30.7642 87.1219 30.0247 86.4746 29.0218C85.8274 28.019 85.5088 26.7528 85.5189 25.2232V2.61349Z" fill="#2563EB"/>
<path d="M110.853 32C108.497 32 106.459 31.4986 104.74 30.4957C103.031 29.4827 101.711 28.0747 100.78 26.2716C99.8498 24.4584 99.3846 22.3564 99.3846 19.9658C99.3846 17.5549 99.8498 15.4479 100.78 13.6448C101.711 11.8316 103.031 10.4236 104.74 9.4207C106.459 8.40773 108.497 7.90124 110.853 7.90124C113.21 7.90124 115.243 8.40773 116.952 9.4207C118.671 10.4236 119.996 11.8316 120.926 13.6448C121.857 15.4479 122.322 17.5549 122.322 19.9658C122.322 22.3564 121.857 24.4584 120.926 26.2716C119.996 28.0747 118.671 29.4827 116.952 30.4957C115.243 31.4986 113.21 32 110.853 32ZM110.884 26.9858C111.956 26.9858 112.851 26.6819 113.569 26.0741C114.287 25.4562 114.828 24.6154 115.192 23.5518C115.566 22.4881 115.753 21.2776 115.753 19.9202C115.753 18.5628 115.566 17.3523 115.192 16.2887C114.828 15.2251 114.287 14.3843 113.569 13.7664C112.851 13.1485 111.956 12.8395 110.884 12.8395C109.802 12.8395 108.891 13.1485 108.153 13.7664C107.425 14.3843 106.874 15.2251 106.499 16.2887C106.135 17.3523 105.953 18.5628 105.953 19.9202C105.953 21.2776 106.135 22.4881 106.499 23.5518C106.874 24.6154 107.425 25.4562 108.153 26.0741C108.891 26.6819 109.802 26.9858 110.884 26.9858Z" fill="#2563EB"/>
<path d="M137.053 32C134.666 32 132.613 31.4935 130.893 30.4805C129.184 29.4574 127.869 28.0393 126.949 26.226C126.039 24.4128 125.584 22.3261 125.584 19.9658C125.584 17.5752 126.044 15.4783 126.964 13.6752C127.895 11.862 129.215 10.4489 130.924 9.4359C132.633 8.41279 134.666 7.90124 137.022 7.90124C139.055 7.90124 140.835 8.27097 142.362 9.01045C143.889 9.74992 145.098 10.7882 145.988 12.1254C146.878 13.4625 147.368 15.0326 147.459 16.8357H141.361C141.189 15.6708 140.734 14.7338 139.996 14.0247C139.267 13.3055 138.312 12.9459 137.128 12.9459C136.127 12.9459 135.252 13.2194 134.504 13.7664C133.766 14.3033 133.189 15.0883 132.774 16.1216C132.36 17.1548 132.152 18.4058 132.152 19.8746C132.152 21.3637 132.355 22.6299 132.759 23.6733C133.174 24.7167 133.755 25.5119 134.504 26.0589C135.252 26.6059 136.127 26.8794 137.128 26.8794C137.867 26.8794 138.529 26.7274 139.116 26.4236C139.712 26.1197 140.203 25.679 140.587 25.1016C140.982 24.5141 141.24 23.8101 141.361 22.9896H147.459C147.358 24.7724 146.873 26.3425 146.003 27.6999C145.143 29.0472 143.955 30.1007 142.438 30.8604C140.921 31.6201 139.126 32 137.053 32Z" fill="#2563EB"/>
<path d="M157.453 24.8281L157.468 17.0636H158.409L165.872 8.20513H173.291L163.263 19.9354H161.731L157.453 24.8281ZM151.597 31.5442V0.425451H158.06V31.5442H151.597ZM166.161 31.5442L159.304 21.3789L163.612 16.8053L173.731 31.5442H166.161Z" fill="#2563EB"/>
<path d="M176.583 0.425451H184.684L193.24 21.3333H193.604L202.16 0.425451H210.261V31.5442H203.889V11.2896H203.631L195.591 31.3922H191.252L183.212 11.2137H182.954V31.5442H176.583V0.425451Z" fill="#2563EB"/>
<path d="M222.196 31.9848C220.709 31.9848 219.384 31.7265 218.221 31.2099C217.058 30.6831 216.138 29.9082 215.46 28.8851C214.793 27.8519 214.459 26.5654 214.459 25.0256C214.459 23.729 214.697 22.6401 215.172 21.7588C215.647 20.8775 216.295 20.1684 217.114 19.6315C217.933 19.0947 218.864 18.6895 219.905 18.416C220.957 18.1425 222.059 17.95 223.212 17.8386C224.568 17.6967 225.66 17.5651 226.489 17.4435C227.318 17.3118 227.92 17.1193 228.294 16.8661C228.669 16.6129 228.856 16.2381 228.856 15.7417V15.6505C228.856 14.6882 228.552 13.9437 227.946 13.4169C227.349 12.8902 226.499 12.6268 225.397 12.6268C224.234 12.6268 223.308 12.8851 222.621 13.4017C221.933 13.9082 221.478 14.5464 221.255 15.3162L215.278 14.83C215.582 13.4118 216.178 12.1861 217.068 11.1529C217.958 10.1095 219.106 9.30927 220.512 8.75214C221.928 8.18487 223.566 7.90124 225.427 7.90124C226.722 7.90124 227.961 8.05318 229.144 8.35707C230.337 8.66097 231.394 9.132 232.315 9.77018C233.245 10.4084 233.978 11.2289 234.514 12.2317C235.05 13.2244 235.318 14.4147 235.318 15.8025V31.5442H229.189V28.3077H229.007C228.633 29.037 228.133 29.6803 227.506 30.2374C226.879 30.7844 226.125 31.2149 225.245 31.529C224.365 31.8329 223.349 31.9848 222.196 31.9848ZM224.047 27.5176C224.997 27.5176 225.837 27.3302 226.565 26.9554C227.293 26.5704 227.865 26.0538 228.279 25.4055C228.694 24.7572 228.901 24.0228 228.901 23.2023V20.7255C228.699 20.8572 228.421 20.9788 228.067 21.0902C227.723 21.1915 227.334 21.2877 226.899 21.3789C226.464 21.46 226.029 21.5359 225.594 21.6068C225.159 21.6676 224.765 21.7233 224.411 21.774C223.652 21.8854 222.99 22.0627 222.424 22.3058C221.857 22.5489 221.417 22.8781 221.104 23.2934C220.79 23.6986 220.633 24.2051 220.633 24.8129C220.633 25.6942 220.952 26.3678 221.589 26.8338C222.236 27.2896 223.056 27.5176 224.047 27.5176Z" fill="#2563EB"/>
<path d="M252.726 8.20513V13.0674H238.694V8.20513H252.726ZM241.879 2.61349H248.342V24.3723C248.342 24.9699 248.433 25.4359 248.615 25.7702C248.797 26.0943 249.05 26.3223 249.374 26.4539C249.707 26.5856 250.092 26.6515 250.527 26.6515C250.83 26.6515 251.133 26.6261 251.437 26.5755C251.74 26.5147 251.973 26.4691 252.135 26.4387L253.151 31.2555C252.827 31.3568 252.372 31.4733 251.786 31.6049C251.199 31.7468 250.486 31.8329 249.647 31.8632C248.089 31.924 246.724 31.7164 245.551 31.2403C244.388 30.7642 243.482 30.0247 242.835 29.0218C242.188 28.019 241.869 26.7528 241.879 25.2232V2.61349Z" fill="#2563EB"/>
<path d="M267.305 32C264.908 32 262.845 31.5138 261.115 30.5413C259.396 29.5587 258.071 28.1709 257.141 26.378C256.21 24.5749 255.745 22.4425 255.745 19.981C255.745 17.5802 256.21 15.4733 257.141 13.66C258.071 11.8468 259.381 10.4337 261.07 9.4207C262.769 8.40773 264.761 7.90124 267.047 7.90124C268.584 7.90124 270.015 8.14942 271.34 8.64578C272.675 9.13201 273.838 9.86641 274.829 10.849C275.831 11.8316 276.609 13.0674 277.166 14.5565C277.722 16.0355 278 17.7676 278 19.7531V21.5309H258.324V17.5195H271.917C271.917 16.5875 271.714 15.762 271.31 15.0427C270.905 14.3235 270.344 13.7613 269.626 13.3561C268.918 12.9408 268.094 12.7331 267.153 12.7331C266.172 12.7331 265.302 12.9611 264.544 13.4169C263.796 13.8626 263.209 14.4653 262.784 15.2251C262.359 15.9747 262.142 16.8104 262.132 17.7322V21.5461C262.132 22.7009 262.344 23.6986 262.769 24.5394C263.204 25.3802 263.816 26.0285 264.605 26.4843C265.393 26.9402 266.329 27.1681 267.411 27.1681C268.129 27.1681 268.787 27.0668 269.383 26.8642C269.98 26.6616 270.491 26.3577 270.915 25.9525C271.34 25.5473 271.664 25.051 271.886 24.4634L277.863 24.8585C277.56 26.2969 276.938 27.553 275.998 28.6268C275.067 29.6904 273.864 30.5211 272.387 31.1187C270.92 31.7062 269.227 32 267.305 32Z" fill="#2563EB"/>
</svg>
